0, 0, Header, 1, 10, 120
1, 0, Start_track
1, 0, Time_signature, 2, 2, 24, 8
1, 0, Key_signature, 1, "major"
1, 0, Tempo, 521739
1, 6840, Tempo, 535714
1, 6900, Tempo, 571428
1, 6930, Tempo, 600000
1, 6960, Tempo, 625000
1, 7200, Tempo, 521739
1, 7200, End_track
2, 0, Start_track
2, 0, MIDI_port, 0
2, 0, Title_t, "Flauti"
2, 0, Program_c, 0, 73
2, 0, Control_c, 0, 7, 100
2, 0, Control_c, 0, 10, 64
2, 0, Control_c, 0, 91, 100
2, 0, Control_c, 0, 93, 30
2, 3840, Note_on_c, 0, 67, 100
2, 4080, Note_on_c, 0, 67, 0
2, 4080, Note_on_c, 0, 66, 100
2, 4140, Note_on_c, 0, 66, 0
2, 4140, Note_on_c, 0, 67, 100
2, 4200, Note_on_c, 0, 67, 0
2, 4200, Note_on_c, 0, 69, 100
2, 4320, Note_on_c, 0, 69, 0
2, 4320, Note_on_c, 0, 64, 100
2, 4560, Note_on_c, 0, 64, 0
2, 4560, Note_on_c, 0, 62, 100
2, 4800, Note_on_c, 0, 62, 0
2, 6240, Note_on_c, 0, 69, 100
2, 6480, Note_on_c, 0, 69, 0
2, 6480, Note_on_c, 0, 62, 100
2, 6720, Note_on_c, 0, 62, 0
2, 6720, Note_on_c, 0, 72, 100
2, 6960, Note_on_c, 0, 72, 0
2, 6960, Note_on_c, 0, 72, 100
2, 7020, Note_on_c, 0, 72, 0
2, 7020, Note_on_c, 0, 71, 100
2, 7140, Note_on_c, 0, 71, 0
2, 7140, Note_on_c, 0, 69, 100
2, 7200, Note_on_c, 0, 69, 0
2, 7200, Note_on_c, 0, 71, 100
2, 7680, Note_on_c, 0, 71, 0
2, 7680, Note_on_c, 0, 64, 100
2, 7920, Note_on_c, 0, 64, 0
2, 7920, Note_on_c, 0, 66, 100
2, 7980, Note_on_c, 0, 66, 0
2, 7980, Note_on_c, 0, 67, 100
2, 8100, Note_on_c, 0, 67, 0
2, 8100, Note_on_c, 0, 69, 100
2, 8160, Note_on_c, 0, 69, 0
2, 8160, Note_on_c, 0, 62, 100
2, 8400, Note_on_c, 0, 62, 0
2, 8400, Note_on_c, 0, 67, 100
2, 8520, Note_on_c, 0, 67, 0
2, 8520, End_track
3, 0, Start_track
3, 0, MIDI_port, 0
3, 0, Title_t, "Oboi"
3, 0, Program_c, 1, 68
3, 0, Control_c, 1, 7, 100
3, 0, Control_c, 1, 10, 64
3, 0, Control_c, 1, 91, 100
3, 0, Control_c, 1, 93, 30
3, 6720, Note_on_c, 1, 72, 100
3, 7020, Note_on_c, 1, 72, 0
3, 7020, Note_on_c, 1, 71, 100
3, 7140, Note_on_c, 1, 71, 0
3, 7140, Note_on_c, 1, 69, 100
3, 7200, Note_on_c, 1, 69, 0
3, 7200, Note_on_c, 1, 71, 100
3, 7680, Note_on_c, 1, 71, 0
3, 7680, Note_on_c, 1, 76, 100
3, 7800, Note_on_c, 1, 76, 0
3, 7800, End_track
4, 0, Start_track
4, 0, MIDI_port, 0
4, 0, Title_t, "Clarinetti"
4, 0, Program_c, 2, 71
4, 0, Control_c, 2, 7, 100
4, 0, Control_c, 2, 10, 64
4, 0, Control_c, 2, 91, 100
4, 0, Control_c, 2, 93, 50
4, 0, Note_on_c, 2, 67, 100
4, 240, Note_on_c, 2, 67, 0
4, 240, Note_on_c, 2, 66, 100
4, 300, Note_on_c, 2, 66, 0
4, 300, Note_on_c, 2, 67, 100
4, 360, Note_on_c, 2, 67, 0
4, 360, Note_on_c, 2, 69, 100
4, 480, Note_on_c, 2, 69, 0
4, 480, Note_on_c, 2, 64, 100
4, 720, Note_on_c, 2, 64, 0
4, 720, Note_on_c, 2, 62, 100
4, 960, Note_on_c, 2, 62, 0
4, 960, Note_on_c, 2, 60, 100
4, 1200, Note_on_c, 2, 60, 0
4, 1200, Note_on_c, 2, 59, 100
4, 1260, Note_on_c, 2, 59, 0
4, 1260, Note_on_c, 2, 60, 100
4, 1320, Note_on_c, 2, 60, 0
4, 1320, Note_on_c, 2, 62, 100
4, 1440, Note_on_c, 2, 62, 0
4, 1440, Note_on_c, 2, 57, 100
4, 1860, Note_on_c, 2, 57, 0
4, 1920, Note_on_c, 2, 59, 100
4, 2160, Note_on_c, 2, 59, 0
4, 2160, Note_on_c, 2, 61, 100
4, 2220, Note_on_c, 2, 61, 0
4, 2220, Note_on_c, 2, 62, 100
4, 2340, Note_on_c, 2, 62, 0
4, 2340, Note_on_c, 2, 64, 100
4, 2400, Note_on_c, 2, 64, 0
4, 2400, Note_on_c, 2, 69, 100
4, 2640, Note_on_c, 2, 69, 0
4, 2640, Note_on_c, 2, 62, 100
4, 2880, Note_on_c, 2, 62, 0
4, 2880, Note_on_c, 2, 67, 100
4, 3180, Note_on_c, 2, 67, 0
4, 3180, Note_on_c, 2, 66, 100
4, 3300, Note_on_c, 2, 66, 0
4, 3300, Note_on_c, 2, 64, 100
4, 3360, Note_on_c, 2, 64, 0
4, 3360, Note_on_c, 2, 62, 100
4, 3780, Note_on_c, 2, 62, 0
4, 3840, Note_on_c, 2, 67, 100
4, 4080, Note_on_c, 2, 67, 0
4, 4080, Note_on_c, 2, 66, 100
4, 4140, Note_on_c, 2, 66, 0
4, 4140, Note_on_c, 2, 67, 100
4, 4200, Note_on_c, 2, 67, 0
4, 4200, Note_on_c, 2, 69, 100
4, 4320, Note_on_c, 2, 69, 0
4, 4320, Note_on_c, 2, 64, 100
4, 4560, Note_on_c, 2, 64, 0
4, 4560, Note_on_c, 2, 62, 100
4, 4740, Note_on_c, 2, 62, 0
4, 4800, Note_on_c, 2, 60, 100
4, 5040, Note_on_c, 2, 60, 0
4, 5040, Note_on_c, 2, 59, 100
4, 5100, Note_on_c, 2, 59, 0
4, 5100, Note_on_c, 2, 60, 100
4, 5160, Note_on_c, 2, 60, 0
4, 5160, Note_on_c, 2, 62, 100
4, 5280, Note_on_c, 2, 62, 0
4, 5280, Note_on_c, 2, 57, 100
4, 5700, Note_on_c, 2, 57, 0
4, 5760, Note_on_c, 2, 59, 100
4, 6000, Note_on_c, 2, 59, 0
4, 6000, Note_on_c, 2, 61, 100
4, 6060, Note_on_c, 2, 61, 0
4, 6060, Note_on_c, 2, 62, 100
4, 6180, Note_on_c, 2, 62, 0
4, 6180, Note_on_c, 2, 64, 100
4, 6240, Note_on_c, 2, 64, 0
4, 6240, Note_on_c, 2, 69, 100
4, 6480, Note_on_c, 2, 69, 0
4, 6480, Note_on_c, 2, 62, 100
4, 6720, Note_on_c, 2, 62, 0
4, 6720, Note_on_c, 2, 72, 100
4, 6960, Note_on_c, 2, 72, 0
4, 6960, Note_on_c, 2, 72, 100
4, 7020, Note_on_c, 2, 72, 0
4, 7020, Note_on_c, 2, 71, 100
4, 7140, Note_on_c, 2, 71, 0
4, 7140, Note_on_c, 2, 69, 100
4, 7200, Note_on_c, 2, 69, 0
4, 7200, Note_on_c, 2, 71, 100
4, 7680, Note_on_c, 2, 71, 0
4, 7680, Note_on_c, 2, 64, 100
4, 7920, Note_on_c, 2, 64, 0
4, 7920, Note_on_c, 2, 66, 100
4, 7980, Note_on_c, 2, 66, 0
4, 7980, Note_on_c, 2, 67, 100
4, 8100, Note_on_c, 2, 67, 0
4, 8100, Note_on_c, 2, 69, 100
4, 8160, Note_on_c, 2, 69, 0
4, 8160, Note_on_c, 2, 62, 100
4, 8400, Note_on_c, 2, 62, 0
4, 8400, Note_on_c, 2, 67, 100
4, 8640, Note_on_c, 2, 67, 0
4, 8640, Note_on_c, 2, 55, 100
4, 8880, Note_on_c, 2, 55, 0
4, 8880, Note_on_c, 2, 60, 100
4, 8940, Note_on_c, 2, 60, 0
4, 8940, Note_on_c, 2, 59, 100
4, 9060, Note_on_c, 2, 59, 0
4, 9060, Note_on_c, 2, 57, 100
4, 9120, Note_on_c, 2, 57, 0
4, 9120, Note_on_c, 2, 55, 100
4, 9600, Note_on_c, 2, 55, 0
4, 9600, End_track
5, 0, Start_track
5, 0, MIDI_port, 0
5, 0, Title_t, "Clarinetto basso"
5, 0, Program_c, 2, 71
5, 0, Control_c, 2, 7, 100
5, 0, Control_c, 2, 10, 64
5, 0, Control_c, 2, 91, 100
5, 0, Control_c, 2, 93, 0
5, 6720, Note_on_c, 2, 52, 100
5, 6960, Note_on_c, 2, 52, 0
5, 6960, Note_on_c, 2, 50, 100
5, 7200, Note_on_c, 2, 50, 0
5, 7200, Note_on_c, 2, 55, 100
5, 7320, Note_on_c, 2, 55, 0
5, 7320, End_track
6, 0, Start_track
6, 0, MIDI_port, 0
6, 0, Title_t, "Fagotti"
6, 0, Program_c, 3, 70
6, 0, Control_c, 3, 7, 90
6, 0, Control_c, 3, 10, 64
6, 0, Control_c, 3, 91, 120
6, 0, Control_c, 3, 93, 30
6, 9600, Note_on_c, 3, 59, 100
6, 9600, Note_on_c, 3, 55, 100
6, 9720, Note_on_c, 3, 55, 0
6, 9720, Note_on_c, 3, 59, 0
6, 9720, Note_on_c, 3, 59, 100
6, 9720, Note_on_c, 3, 55, 100
6, 9840, Note_on_c, 3, 55, 0
6, 9840, Note_on_c, 3, 59, 0
6, 9840, Note_on_c, 3, 60, 100
6, 9840, Note_on_c, 3, 50, 100
6, 9960, Note_on_c, 3, 50, 0
6, 9960, Note_on_c, 3, 60, 0
6, 9960, Note_on_c, 3, 60, 100
6, 9960, Note_on_c, 3, 50, 100
6, 10080, Note_on_c, 3, 50, 0
6, 10080, Note_on_c, 3, 60, 0
6, 10080, Note_on_c, 3, 59, 100
6, 10080, Note_on_c, 3, 55, 100
6, 10200, Note_on_c, 3, 55, 0
6, 10200, Note_on_c, 3, 59, 0
6, 10200, Note_on_c, 3, 59, 100
6, 10200, Note_on_c, 3, 55, 100
6, 10320, Note_on_c, 3, 55, 0
6, 10320, Note_on_c, 3, 59, 0
6, 10320, Note_on_c, 3, 59, 100
6, 10320, Note_on_c, 3, 55, 100
6, 10440, Note_on_c, 3, 55, 0
6, 10440, Note_on_c, 3, 59, 0
6, 10440, Note_on_c, 3, 62, 100
6, 10440, Note_on_c, 3, 55, 100
6, 10560, Note_on_c, 3, 55, 0
6, 10560, Note_on_c, 3, 62, 0
6, 10560, Note_on_c, 3, 55, 100
6, 10560, Note_on_c, 3, 64, 100
6, 10680, Note_on_c, 3, 64, 0
6, 10680, Note_on_c, 3, 55, 0
6, 10680, Note_on_c, 3, 55, 100
6, 10680, Note_on_c, 3, 64, 100
6, 10800, Note_on_c, 3, 64, 0
6, 10800, Note_on_c, 3, 55, 0
6, 10800, Note_on_c, 3, 55, 100
6, 10800, Note_on_c, 3, 62, 100
6, 10920, Note_on_c, 3, 62, 0
6, 10920, Note_on_c, 3, 55, 0
6, 10920, Note_on_c, 3, 59, 100
6, 10920, Note_on_c, 3, 55, 100
6, 11040, Note_on_c, 3, 55, 0
6, 11040, Note_on_c, 3, 59, 0
6, 11040, Note_on_c, 3, 61, 100
6, 11040, Note_on_c, 3, 55, 100
6, 11160, Note_on_c, 3, 55, 0
6, 11160, Note_on_c, 3, 61, 0
6, 11160, Note_on_c, 3, 55, 100
6, 11160, Note_on_c, 3, 61, 100
6, 11280, Note_on_c, 3, 61, 0
6, 11280, Note_on_c, 3, 55, 0
6, 11280, Note_on_c, 3, 62, 100
6, 11280, Note_on_c, 3, 54, 100
6, 11400, Note_on_c, 3, 54, 0
6, 11400, Note_on_c, 3, 62, 0
6, 11400, Note_on_c, 3, 62, 100
6, 11400, Note_on_c, 3, 54, 100
6, 11520, Note_on_c, 3, 54, 0
6, 11520, Note_on_c, 3, 62, 0
6, 11520, Note_on_c, 3, 62, 100
6, 11520, Note_on_c, 3, 55, 100
6, 11640, Note_on_c, 3, 55, 0
6, 11640, Note_on_c, 3, 62, 0
6, 11640, Note_on_c, 3, 62, 100
6, 11640, Note_on_c, 3, 55, 100
6, 11760, Note_on_c, 3, 55, 0
6, 11760, Note_on_c, 3, 62, 0
6, 11760, Note_on_c, 3, 61, 100
6, 11760, Note_on_c, 3, 52, 100
6, 11880, Note_on_c, 3, 52, 0
6, 11880, Note_on_c, 3, 61, 0
6, 11880, Note_on_c, 3, 52, 100
6, 11880, Note_on_c, 3, 61, 100
6, 12000, Note_on_c, 3, 61, 0
6, 12000, Note_on_c, 3, 52, 0
6, 12000, Note_on_c, 3, 62, 100
6, 12000, Note_on_c, 3, 50, 100
6, 12120, Note_on_c, 3, 50, 0
6, 12120, Note_on_c, 3, 62, 0
6, 12120, Note_on_c, 3, 50, 100
6, 12120, Note_on_c, 3, 62, 100
6, 12240, Note_on_c, 3, 62, 0
6, 12240, Note_on_c, 3, 50, 0
6, 12240, Note_on_c, 3, 59, 100
6, 12240, Note_on_c, 3, 54, 100
6, 12360, Note_on_c, 3, 54, 0
6, 12360, Note_on_c, 3, 59, 0
6, 12360, Note_on_c, 3, 59, 100
6, 12360, Note_on_c, 3, 54, 100
6, 12480, Note_on_c, 3, 54, 0
6, 12480, Note_on_c, 3, 59, 0
6, 12480, Note_on_c, 3, 59, 100
6, 12480, Note_on_c, 3, 55, 100
6, 12600, Note_on_c, 3, 55, 0
6, 12600, Note_on_c, 3, 59, 0
6, 12600, Note_on_c, 3, 59, 100
6, 12600, Note_on_c, 3, 55, 100
6, 12720, Note_on_c, 3, 55, 0
6, 12720, Note_on_c, 3, 59, 0
6, 12720, Note_on_c, 3, 61, 100
6, 12720, Note_on_c, 3, 55, 100
6, 12840, Note_on_c, 3, 55, 0
6, 12840, Note_on_c, 3, 61, 0
6, 12840, Note_on_c, 3, 61, 100
6, 12840, Note_on_c, 3, 55, 100
6, 12960, Note_on_c, 3, 55, 0
6, 12960, Note_on_c, 3, 61, 0
6, 12960, Note_on_c, 3, 62, 100
6, 12960, Note_on_c, 3, 54, 100
6, 13080, Note_on_c, 3, 54, 0
6, 13080, Note_on_c, 3, 62, 0
6, 13080, Note_on_c, 3, 54, 100
6, 13080, Note_on_c, 3, 62, 100
6, 13200, Note_on_c, 3, 62, 0
6, 13200, Note_on_c, 3, 54, 0
6, 13200, Note_on_c, 3, 60, 100
6, 13200, Note_on_c, 3, 54, 100
6, 13320, Note_on_c, 3, 54, 0
6, 13320, Note_on_c, 3, 60, 0
6, 13320, Note_on_c, 3, 60, 100
6, 13320, Note_on_c, 3, 54, 100
6, 13440, Note_on_c, 3, 54, 0
6, 13440, Note_on_c, 3, 60, 0
6, 13440, Note_on_c, 3, 59, 100
6, 13440, Note_on_c, 3, 55, 100
6, 13560, Note_on_c, 3, 55, 0
6, 13560, Note_on_c, 3, 59, 0
6, 13560, Note_on_c, 3, 59, 100
6, 13560, Note_on_c, 3, 55, 100
6, 13680, Note_on_c, 3, 55, 0
6, 13680, Note_on_c, 3, 59, 0
6, 13680, Note_on_c, 3, 62, 100
6, 13680, Note_on_c, 3, 50, 100
6, 13800, Note_on_c, 3, 50, 0
6, 13800, Note_on_c, 3, 62, 0
6, 13800, Note_on_c, 3, 50, 100
6, 13800, Note_on_c, 3, 62, 100
6, 13920, Note_on_c, 3, 62, 0
6, 13920, Note_on_c, 3, 50, 0
6, 13920, Note_on_c, 3, 59, 100
6, 13920, Note_on_c, 3, 55, 100
6, 14040, Note_on_c, 3, 55, 0
6, 14040, Note_on_c, 3, 59, 0
6, 14040, Note_on_c, 3, 59, 100
6, 14040, Note_on_c, 3, 55, 100
6, 14160, Note_on_c, 3, 55, 0
6, 14160, Note_on_c, 3, 59, 0
6, 14160, Note_on_c, 3, 59, 100
6, 14160, Note_on_c, 3, 55, 100
6, 14280, Note_on_c, 3, 55, 0
6, 14280, Note_on_c, 3, 59, 0
6, 14280, Note_on_c, 3, 62, 100
6, 14280, Note_on_c, 3, 55, 100
6, 14400, Note_on_c, 3, 55, 0
6, 14400, Note_on_c, 3, 62, 0
6, 14400, Note_on_c, 3, 60, 100
6, 14400, Note_on_c, 3, 55, 100
6, 14520, Note_on_c, 3, 55, 0
6, 14520, Note_on_c, 3, 60, 0
6, 14520, Note_on_c, 3, 60, 100
6, 14520, Note_on_c, 3, 55, 100
6, 14640, Note_on_c, 3, 55, 0
6, 14640, Note_on_c, 3, 60, 0
6, 14640, Note_on_c, 3, 59, 100
6, 14640, Note_on_c, 3, 55, 100
6, 14760, Note_on_c, 3, 55, 0
6, 14760, Note_on_c, 3, 59, 0
6, 14760, Note_on_c, 3, 59, 100
6, 14760, Note_on_c, 3, 55, 100
6, 14880, Note_on_c, 3, 55, 0
6, 14880, Note_on_c, 3, 59, 0
6, 14880, Note_on_c, 3, 64, 100
6, 14880, Note_on_c, 3, 55, 100
6, 15000, Note_on_c, 3, 55, 0
6, 15000, Note_on_c, 3, 64, 0
6, 15000, Note_on_c, 3, 64, 100
6, 15000, Note_on_c, 3, 55, 100
6, 15120, Note_on_c, 3, 55, 0
6, 15120, Note_on_c, 3, 64, 0
6, 15120, Note_on_c, 3, 62, 100
6, 15120, Note_on_c, 3, 54, 100
6, 15240, Note_on_c, 3, 54, 0
6, 15240, Note_on_c, 3, 62, 0
6, 15240, Note_on_c, 3, 54, 100
6, 15240, Note_on_c, 3, 62, 100
6, 15360, Note_on_c, 3, 62, 0
6, 15360, Note_on_c, 3, 54, 0
6, 15360, Note_on_c, 3, 62, 100
6, 15360, Note_on_c, 3, 55, 100
6, 15480, Note_on_c, 3, 55, 0
6, 15480, Note_on_c, 3, 62, 0
6, 15480, Note_on_c, 3, 55, 100
6, 15480, Note_on_c, 3, 62, 100
6, 15600, Note_on_c, 3, 62, 0
6, 15600, Note_on_c, 3, 55, 0
6, 15600, Note_on_c, 3, 61, 100
6, 15600, Note_on_c, 3, 52, 100
6, 15720, Note_on_c, 3, 52, 0
6, 15720, Note_on_c, 3, 61, 0
6, 15720, Note_on_c, 3, 57, 100
6, 15720, Note_on_c, 3, 52, 100
6, 15840, Note_on_c, 3, 52, 0
6, 15840, Note_on_c, 3, 57, 0
6, 15840, Note_on_c, 3, 62, 100
6, 15840, Note_on_c, 3, 50, 100
6, 15960, Note_on_c, 3, 50, 0
6, 15960, Note_on_c, 3, 62, 0
6, 15960, Note_on_c, 3, 62, 100
6, 15960, Note_on_c, 3, 50, 100
6, 16080, Note_on_c, 3, 50, 0
6, 16080, Note_on_c, 3, 62, 0
6, 16080, Note_on_c, 3, 50, 100
6, 16080, Note_on_c, 3, 57, 100
6, 16200, Note_on_c, 3, 57, 0
6, 16200, Note_on_c, 3, 50, 0
6, 16200, Note_on_c, 3, 50, 100
6, 16200, Note_on_c, 3, 57, 100
6, 16320, Note_on_c, 3, 57, 0
6, 16320, Note_on_c, 3, 50, 0
6, 16320, Note_on_c, 3, 60, 100
6, 16320, Note_on_c, 3, 55, 100
6, 16440, Note_on_c, 3, 55, 0
6, 16440, Note_on_c, 3, 60, 0
6, 16440, Note_on_c, 3, 60, 100
6, 16440, Note_on_c, 3, 55, 100
6, 16560, Note_on_c, 3, 55, 0
6, 16560, Note_on_c, 3, 60, 0
6, 16560, Note_on_c, 3, 62, 100
6, 16560, Note_on_c, 3, 57, 100
6, 16680, Note_on_c, 3, 57, 0
6, 16680, Note_on_c, 3, 62, 0
6, 16680, Note_on_c, 3, 62, 100
6, 16680, Note_on_c, 3, 60, 100
6, 16800, Note_on_c, 3, 60, 0
6, 16800, Note_on_c, 3, 62, 0
6, 16800, Note_on_c, 3, 62, 100
6, 16800, Note_on_c, 3, 59, 100
6, 16920, Note_on_c, 3, 59, 0
6, 16920, Note_on_c, 3, 62, 0
6, 16920, Note_on_c, 3, 62, 100
6, 16920, Note_on_c, 3, 59, 100
6, 17040, Note_on_c, 3, 59, 0
6, 17040, Note_on_c, 3, 62, 0
6, 17040, Note_on_c, 3, 62, 100
6, 17040, Note_on_c, 3, 59, 100
6, 17160, Note_on_c, 3, 59, 0
6, 17160, Note_on_c, 3, 62, 0
6, 17160, Note_on_c, 3, 62, 100
6, 17160, Note_on_c, 3, 59, 100
6, 17280, Note_on_c, 3, 59, 0
6, 17280, Note_on_c, 3, 62, 0
6, 17280, Note_on_c, 3, 60, 100
6, 17280, Note_on_c, 3, 55, 100
6, 17400, Note_on_c, 3, 55, 0
6, 17400, Note_on_c, 3, 60, 0
6, 17400, Note_on_c, 3, 55, 100
6, 17400, Note_on_c, 3, 60, 100
6, 17520, Note_on_c, 3, 60, 0
6, 17520, Note_on_c, 3, 55, 0
6, 17520, Note_on_c, 3, 62, 100
6, 17520, Note_on_c, 3, 54, 100
6, 17640, Note_on_c, 3, 54, 0
6, 17640, Note_on_c, 3, 62, 0
6, 17640, Note_on_c, 3, 62, 100
6, 17640, Note_on_c, 3, 54, 100
6, 17760, Note_on_c, 3, 54, 0
6, 17760, Note_on_c, 3, 62, 0
6, 17760, Note_on_c, 3, 62, 100
6, 17760, Note_on_c, 3, 55, 100
6, 17880, Note_on_c, 3, 55, 0
6, 17880, Note_on_c, 3, 62, 0
6, 17880, Note_on_c, 3, 62, 100
6, 17880, Note_on_c, 3, 55, 100
6, 18000, Note_on_c, 3, 55, 0
6, 18000, Note_on_c, 3, 62, 0
6, 18000, Note_on_c, 3, 59, 100
6, 18000, Note_on_c, 3, 55, 100
6, 18120, Note_on_c, 3, 55, 0
6, 18120, Note_on_c, 3, 59, 0
6, 18120, Note_on_c, 3, 59, 100
6, 18120, Note_on_c, 3, 55, 100
6, 18240, Note_on_c, 3, 55, 0
6, 18240, Note_on_c, 3, 59, 0
6, 18240, Note_on_c, 3, 60, 100
6, 18240, Note_on_c, 3, 52, 100
6, 18360, Note_on_c, 3, 52, 0
6, 18360, Note_on_c, 3, 60, 0
6, 18360, Note_on_c, 3, 52, 100
6, 18360, Note_on_c, 3, 60, 100
6, 18480, Note_on_c, 3, 60, 0
6, 18480, Note_on_c, 3, 52, 0
6, 18480, Note_on_c, 3, 60, 100
6, 18480, Note_on_c, 3, 54, 100
6, 18600, Note_on_c, 3, 54, 0
6, 18600, Note_on_c, 3, 60, 0
6, 18600, Note_on_c, 3, 60, 100
6, 18600, Note_on_c, 3, 54, 100
6, 18720, Note_on_c, 3, 54, 0
6, 18720, Note_on_c, 3, 60, 0
6, 18720, Note_on_c, 3, 59, 100
6, 18720, Note_on_c, 3, 55, 100
6, 18840, Note_on_c, 3, 55, 0
6, 18840, Note_on_c, 3, 59, 0
6, 18840, Note_on_c, 3, 59, 100
6, 18840, Note_on_c, 3, 55, 100
6, 18960, Note_on_c, 3, 55, 0
6, 18960, Note_on_c, 3, 59, 0
6, 18960, Note_on_c, 3, 59, 100
6, 18960, Note_on_c, 3, 55, 100
6, 19080, Note_on_c, 3, 55, 0
6, 19080, Note_on_c, 3, 59, 0
6, 19080, Note_on_c, 3, 59, 100
6, 19080, Note_on_c, 3, 55, 100
6, 19200, Note_on_c, 3, 55, 0
6, 19200, Note_on_c, 3, 59, 0
6, 19200, End_track
7, 0, Start_track
7, 0, MIDI_port, 0
7, 0, Title_t, "Violini I"
7, 0, Program_c, 8, 50
7, 0, Control_c, 8, 7, 100
7, 0, Control_c, 8, 10, 64
7, 0, Control_c, 8, 93, 120
7, 0, Control_c, 8, 91, 60
7, 9600, Note_on_c, 8, 67, 100
7, 9840, Note_on_c, 8, 67, 0
7, 9840, Note_on_c, 8, 66, 100
7, 9900, Note_on_c, 8, 66, 0
7, 9900, Note_on_c, 8, 67, 100
7, 9960, Note_on_c, 8, 67, 0
7, 9960, Note_on_c, 8, 69, 100
7, 10080, Note_on_c, 8, 69, 0
7, 10080, Note_on_c, 8, 64, 100
7, 10320, Note_on_c, 8, 64, 0
7, 10320, Note_on_c, 8, 62, 100
7, 10560, Note_on_c, 8, 62, 0
7, 10560, Note_on_c, 8, 60, 100
7, 10800, Note_on_c, 8, 60, 0
7, 10800, Note_on_c, 8, 59, 100
7, 10860, Note_on_c, 8, 59, 0
7, 10860, Note_on_c, 8, 60, 100
7, 10920, Note_on_c, 8, 60, 0
7, 10920, Note_on_c, 8, 62, 100
7, 11040, Note_on_c, 8, 62, 0
7, 11040, Note_on_c, 8, 57, 100
7, 11460, Note_on_c, 8, 57, 0
7, 11520, Note_on_c, 8, 59, 100
7, 11760, Note_on_c, 8, 59, 0
7, 11760, Note_on_c, 8, 61, 100
7, 11820, Note_on_c, 8, 61, 0
7, 11820, Note_on_c, 8, 62, 100
7, 11940, Note_on_c, 8, 62, 0
7, 11940, Note_on_c, 8, 64, 100
7, 12000, Note_on_c, 8, 64, 0
7, 12000, Note_on_c, 8, 69, 100
7, 12240, Note_on_c, 8, 69, 0
7, 12240, Note_on_c, 8, 62, 100
7, 12480, Note_on_c, 8, 62, 0
7, 12480, Note_on_c, 8, 67, 100
7, 12720, Note_on_c, 8, 67, 0
7, 12720, Note_on_c, 8, 67, 100
7, 12780, Note_on_c, 8, 67, 0
7, 12780, Note_on_c, 8, 66, 100
7, 12900, Note_on_c, 8, 66, 0
7, 12900, Note_on_c, 8, 64, 100
7, 12960, Note_on_c, 8, 64, 0
7, 12960, Note_on_c, 8, 62, 100
7, 13380, Note_on_c, 8, 62, 0
7, 13440, Note_on_c, 8, 67, 100
7, 13680, Note_on_c, 8, 67, 0
7, 13680, Note_on_c, 8, 66, 100
7, 13740, Note_on_c, 8, 66, 0
7, 13740, Note_on_c, 8, 67, 100
7, 13800, Note_on_c, 8, 67, 0
7, 13800, Note_on_c, 8, 69, 100
7, 13920, Note_on_c, 8, 69, 0
7, 13920, Note_on_c, 8, 64, 100
7, 14160, Note_on_c, 8, 64, 0
7, 14160, Note_on_c, 8, 62, 100
7, 14400, Note_on_c, 8, 62, 0
7, 14400, Note_on_c, 8, 60, 100
7, 14640, Note_on_c, 8, 60, 0
7, 14640, Note_on_c, 8, 59, 100
7, 14700, Note_on_c, 8, 59, 0
7, 14700, Note_on_c, 8, 60, 100
7, 14760, Note_on_c, 8, 60, 0
7, 14760, Note_on_c, 8, 62, 100
7, 14880, Note_on_c, 8, 62, 0
7, 14880, Note_on_c, 8, 57, 100
7, 15360, Note_on_c, 8, 57, 0
7, 15360, Note_on_c, 8, 59, 100
7, 15600, Note_on_c, 8, 59, 0
7, 15600, Note_on_c, 8, 61, 100
7, 15660, Note_on_c, 8, 61, 0
7, 15660, Note_on_c, 8, 62, 100
7, 15780, Note_on_c, 8, 62, 0
7, 15780, Note_on_c, 8, 64, 100
7, 15840, Note_on_c, 8, 64, 0
7, 15840, Note_on_c, 8, 69, 100
7, 16080, Note_on_c, 8, 69, 0
7, 16080, Note_on_c, 8, 62, 100
7, 16320, Note_on_c, 8, 62, 0
7, 16320, Note_on_c, 8, 72, 100
7, 16560, Note_on_c, 8, 72, 0
7, 16560, Note_on_c, 8, 72, 100
7, 16620, Note_on_c, 8, 72, 0
7, 16620, Note_on_c, 8, 71, 100
7, 16740, Note_on_c, 8, 71, 0
7, 16740, Note_on_c, 8, 69, 100
7, 16800, Note_on_c, 8, 69, 0
7, 16800, Note_on_c, 8, 71, 100
7, 17280, Note_on_c, 8, 71, 0
7, 17280, Note_on_c, 8, 64, 100
7, 17520, Note_on_c, 8, 64, 0
7, 17520, Note_on_c, 8, 66, 100
7, 17580, Note_on_c, 8, 66, 0
7, 17580, Note_on_c, 8, 67, 100
7, 17700, Note_on_c, 8, 67, 0
7, 17700, Note_on_c, 8, 69, 100
7, 17760, Note_on_c, 8, 69, 0
7, 17760, Note_on_c, 8, 62, 100
7, 18000, Note_on_c, 8, 62, 0
7, 18000, Note_on_c, 8, 67, 100
7, 18240, Note_on_c, 8, 67, 0
7, 18240, Note_on_c, 8, 55, 100
7, 18480, Note_on_c, 8, 55, 0
7, 18480, Note_on_c, 8, 60, 100
7, 18540, Note_on_c, 8, 60, 0
7, 18540, Note_on_c, 8, 59, 100
7, 18660, Note_on_c, 8, 59, 0
7, 18660, Note_on_c, 8, 57, 100
7, 18720, Note_on_c, 8, 57, 0
7, 18720, Note_on_c, 8, 55, 100
7, 19200, Note_on_c, 8, 55, 0
7, 19200, End_track
8, 0, Start_track
8, 0, MIDI_port, 0
8, 0, Title_t, "Violini II"
8, 0, Program_c, 8, 50
8, 0, Control_c, 8, 7, 100
8, 0, Control_c, 8, 10, 64
8, 0, Control_c, 8, 91, 120
8, 0, Control_c, 8, 93, 60
8, 9600, Note_on_c, 8, 59, 100
8, 9600, Note_on_c, 8, 62, 100
8, 9720, Note_on_c, 8, 62, 0
8, 9720, Note_on_c, 8, 59, 0
8, 9720, Note_on_c, 8, 59, 100
8, 9720, Note_on_c, 8, 62, 100
8, 9840, Note_on_c, 8, 62, 0
8, 9840, Note_on_c, 8, 59, 0
8, 9840, Note_on_c, 8, 60, 100
8, 9840, Note_on_c, 8, 62, 100
8, 9960, Note_on_c, 8, 62, 0
8, 9960, Note_on_c, 8, 60, 0
8, 9960, Note_on_c, 8, 60, 100
8, 9960, Note_on_c, 8, 62, 100
8, 10080, Note_on_c, 8, 62, 0
8, 10080, Note_on_c, 8, 60, 0
8, 10080, Note_on_c, 8, 59, 100
8, 10080, Note_on_c, 8, 64, 100
8, 10200, Note_on_c, 8, 64, 0
8, 10200, Note_on_c, 8, 59, 0
8, 10200, Note_on_c, 8, 59, 100
8, 10200, Note_on_c, 8, 64, 100
8, 10320, Note_on_c, 8, 64, 0
8, 10320, Note_on_c, 8, 59, 0
8, 10320, Note_on_c, 8, 59, 100
8, 10320, Note_on_c, 8, 62, 100
8, 10440, Note_on_c, 8, 62, 0
8, 10440, Note_on_c, 8, 59, 0
8, 10440, Note_on_c, 8, 55, 100
8, 10440, Note_on_c, 8, 62, 100
8, 10560, Note_on_c, 8, 62, 0
8, 10560, Note_on_c, 8, 55, 0
8, 10560, Note_on_c, 8, 55, 100
8, 10560, Note_on_c, 8, 64, 100
8, 10680, Note_on_c, 8, 64, 0
8, 10680, Note_on_c, 8, 55, 0
8, 10680, Note_on_c, 8, 64, 100
8, 10680, Note_on_c, 8, 55, 100
8, 10800, Note_on_c, 8, 55, 0
8, 10800, Note_on_c, 8, 64, 0
8, 10800, Note_on_c, 8, 55, 100
8, 10800, Note_on_c, 8, 62, 100
8, 10920, Note_on_c, 8, 62, 0
8, 10920, Note_on_c, 8, 55, 0
8, 10920, Note_on_c, 8, 55, 100
8, 10920, Note_on_c, 8, 62, 100
8, 11040, Note_on_c, 8, 62, 0
8, 11040, Note_on_c, 8, 55, 0
8, 11040, Note_on_c, 8, 61, 100
8, 11160, Note_on_c, 8, 61, 0
8, 11160, Note_on_c, 8, 61, 100
8, 11280, Note_on_c, 8, 61, 0
8, 11280, Note_on_c, 8, 62, 100
8, 11400, Note_on_c, 8, 62, 0
8, 11400, Note_on_c, 8, 57, 100
8, 11400, Note_on_c, 8, 62, 100
8, 11520, Note_on_c, 8, 62, 0
8, 11520, Note_on_c, 8, 57, 0
8, 11520, Note_on_c, 8, 59, 100
8, 11520, Note_on_c, 8, 62, 100
8, 11640, Note_on_c, 8, 62, 0
8, 11640, Note_on_c, 8, 59, 0
8, 11640, Note_on_c, 8, 59, 100
8, 11640, Note_on_c, 8, 62, 100
8, 11760, Note_on_c, 8, 62, 0
8, 11760, Note_on_c, 8, 59, 0
8, 11760, Note_on_c, 8, 57, 100
8, 11760, Note_on_c, 8, 61, 100
8, 11880, Note_on_c, 8, 61, 0
8, 11880, Note_on_c, 8, 57, 0
8, 11880, Note_on_c, 8, 57, 100
8, 11880, Note_on_c, 8, 61, 100
8, 12000, Note_on_c, 8, 61, 0
8, 12000, Note_on_c, 8, 57, 0
8, 12000, Note_on_c, 8, 57, 100
8, 12000, Note_on_c, 8, 62, 100
8, 12120, Note_on_c, 8, 62, 0
8, 12120, Note_on_c, 8, 57, 0
8, 12120, Note_on_c, 8, 57, 100
8, 12120, Note_on_c, 8, 62, 100
8, 12240, Note_on_c, 8, 62, 0
8, 12240, Note_on_c, 8, 57, 0
8, 12240, Note_on_c, 8, 59, 100
8, 12240, Note_on_c, 8, 62, 100
8, 12360, Note_on_c, 8, 62, 0
8, 12360, Note_on_c, 8, 59, 0
8, 12360, Note_on_c, 8, 59, 100
8, 12360, Note_on_c, 8, 62, 100
8, 12480, Note_on_c, 8, 62, 0
8, 12480, Note_on_c, 8, 59, 0
8, 12480, Note_on_c, 8, 59, 100
8, 12480, Note_on_c, 8, 62, 100
8, 12600, Note_on_c, 8, 62, 0
8, 12600, Note_on_c, 8, 59, 0
8, 12600, Note_on_c, 8, 59, 100
8, 12600, Note_on_c, 8, 62, 100
8, 12720, Note_on_c, 8, 62, 0
8, 12720, Note_on_c, 8, 59, 0
8, 12720, Note_on_c, 8, 61, 100
8, 12840, Note_on_c, 8, 61, 0
8, 12840, Note_on_c, 8, 61, 100
8, 12960, Note_on_c, 8, 61, 0
8, 12960, Note_on_c, 8, 57, 100
8, 12960, Note_on_c, 8, 62, 100
8, 13080, Note_on_c, 8, 62, 0
8, 13080, Note_on_c, 8, 57, 0
8, 13080, Note_on_c, 8, 57, 100
8, 13080, Note_on_c, 8, 62, 100
8, 13200, Note_on_c, 8, 62, 0
8, 13200, Note_on_c, 8, 57, 0
8, 13200, Note_on_c, 8, 62, 100
8, 13200, Note_on_c, 8, 60, 100
8, 13320, Note_on_c, 8, 60, 0
8, 13320, Note_on_c, 8, 62, 0
8, 13320, Note_on_c, 8, 62, 100
8, 13320, Note_on_c, 8, 60, 100
8, 13440, Note_on_c, 8, 60, 0
8, 13440, Note_on_c, 8, 62, 0
8, 13440, Note_on_c, 8, 62, 100
8, 13440, Note_on_c, 8, 55, 100
8, 13560, Note_on_c, 8, 55, 0
8, 13560, Note_on_c, 8, 62, 0
8, 13560, Note_on_c, 8, 62, 100
8, 13560, Note_on_c, 8, 55, 100
8, 13680, Note_on_c, 8, 55, 0
8, 13680, Note_on_c, 8, 62, 0
8, 13680, Note_on_c, 8, 62, 100
8, 13680, Note_on_c, 8, 60, 100
8, 13800, Note_on_c, 8, 60, 0
8, 13800, Note_on_c, 8, 62, 0
8, 13800, Note_on_c, 8, 62, 100
8, 13800, Note_on_c, 8, 60, 100
8, 13920, Note_on_c, 8, 60, 0
8, 13920, Note_on_c, 8, 62, 0
8, 13920, Note_on_c, 8, 55, 100
8, 13920, Note_on_c, 8, 64, 100
8, 14040, Note_on_c, 8, 64, 0
8, 14040, Note_on_c, 8, 55, 0
8, 14040, Note_on_c, 8, 55, 100
8, 14040, Note_on_c, 8, 64, 100
8, 14160, Note_on_c, 8, 64, 0
8, 14160, Note_on_c, 8, 55, 0
8, 14160, Note_on_c, 8, 55, 100
8, 14160, Note_on_c, 8, 62, 100
8, 14280, Note_on_c, 8, 62, 0
8, 14280, Note_on_c, 8, 55, 0
8, 14280, Note_on_c, 8, 55, 100
8, 14280, Note_on_c, 8, 62, 100
8, 14400, Note_on_c, 8, 62, 0
8, 14400, Note_on_c, 8, 55, 0
8, 14400, Note_on_c, 8, 55, 100
8, 14400, Note_on_c, 8, 67, 100
8, 14520, Note_on_c, 8, 67, 0
8, 14520, Note_on_c, 8, 55, 0
8, 14520, Note_on_c, 8, 55, 100
8, 14520, Note_on_c, 8, 67, 100
8, 14640, Note_on_c, 8, 67, 0
8, 14640, Note_on_c, 8, 55, 0
8, 14640, Note_on_c, 8, 55, 100
8, 14640, Note_on_c, 8, 67, 100
8, 14760, Note_on_c, 8, 67, 0
8, 14760, Note_on_c, 8, 55, 0
8, 14760, Note_on_c, 8, 59, 100
8, 14760, Note_on_c, 8, 62, 100
8, 14880, Note_on_c, 8, 62, 0
8, 14880, Note_on_c, 8, 59, 0
8, 14880, Note_on_c, 8, 57, 100
8, 14880, Note_on_c, 8, 64, 100
8, 15000, Note_on_c, 8, 64, 0
8, 15000, Note_on_c, 8, 57, 0
8, 15000, Note_on_c, 8, 57, 100
8, 15000, Note_on_c, 8, 64, 100
8, 15120, Note_on_c, 8, 64, 0
8, 15120, Note_on_c, 8, 57, 0
8, 15120, Note_on_c, 8, 57, 100
8, 15120, Note_on_c, 8, 62, 100
8, 15240, Note_on_c, 8, 62, 0
8, 15240, Note_on_c, 8, 57, 0
8, 15240, Note_on_c, 8, 57, 100
8, 15240, Note_on_c, 8, 62, 100
8, 15360, Note_on_c, 8, 62, 0
8, 15360, Note_on_c, 8, 57, 0
8, 15360, Note_on_c, 8, 55, 100
8, 15360, Note_on_c, 8, 62, 100
8, 15480, Note_on_c, 8, 62, 0
8, 15480, Note_on_c, 8, 55, 0
8, 15480, Note_on_c, 8, 55, 100
8, 15480, Note_on_c, 8, 62, 100
8, 15600, Note_on_c, 8, 62, 0
8, 15600, Note_on_c, 8, 55, 0
8, 15600, Note_on_c, 8, 61, 100
8, 15720, Note_on_c, 8, 61, 0
8, 15720, Note_on_c, 8, 61, 100
8, 15840, Note_on_c, 8, 61, 0
8, 15840, Note_on_c, 8, 57, 100
8, 15840, Note_on_c, 8, 62, 100
8, 15960, Note_on_c, 8, 62, 0
8, 15960, Note_on_c, 8, 57, 0
8, 15960, Note_on_c, 8, 57, 100
8, 15960, Note_on_c, 8, 62, 100
8, 16080, Note_on_c, 8, 62, 0
8, 16080, Note_on_c, 8, 57, 0
8, 16080, Note_on_c, 8, 57, 100
8, 16080, Note_on_c, 8, 62, 100
8, 16200, Note_on_c, 8, 62, 0
8, 16200, Note_on_c, 8, 57, 0
8, 16200, Note_on_c, 8, 57, 100
8, 16200, Note_on_c, 8, 62, 100
8, 16320, Note_on_c, 8, 62, 0
8, 16320, Note_on_c, 8, 57, 0
8, 16320, Note_on_c, 8, 55, 100
8, 16320, Note_on_c, 8, 67, 100
8, 16440, Note_on_c, 8, 67, 0
8, 16440, Note_on_c, 8, 55, 0
8, 16440, Note_on_c, 8, 55, 100
8, 16440, Note_on_c, 8, 67, 100
8, 16560, Note_on_c, 8, 67, 0
8, 16560, Note_on_c, 8, 55, 0
8, 16560, Note_on_c, 8, 57, 100
8, 16560, Note_on_c, 8, 66, 100
8, 16680, Note_on_c, 8, 66, 0
8, 16680, Note_on_c, 8, 57, 0
8, 16680, Note_on_c, 8, 66, 100
8, 16800, Note_on_c, 8, 66, 0
8, 16800, Note_on_c, 8, 55, 100
8, 16800, Note_on_c, 8, 67, 100
8, 16920, Note_on_c, 8, 67, 0
8, 16920, Note_on_c, 8, 55, 0
8, 16920, Note_on_c, 8, 67, 100
8, 17040, Note_on_c, 8, 67, 0
8, 17040, Note_on_c, 8, 66, 100
8, 17160, Note_on_c, 8, 66, 0
8, 17160, Note_on_c, 8, 65, 100
8, 17280, Note_on_c, 8, 65, 0
8, 17280, Note_on_c, 8, 55, 100
8, 17280, Note_on_c, 8, 64, 100
8, 17400, Note_on_c, 8, 64, 0
8, 17400, Note_on_c, 8, 55, 0
8, 17400, Note_on_c, 8, 55, 100
8, 17400, Note_on_c, 8, 64, 100
8, 17520, Note_on_c, 8, 64, 0
8, 17520, Note_on_c, 8, 55, 0
8, 17520, Note_on_c, 8, 57, 100
8, 17520, Note_on_c, 8, 62, 100
8, 17640, Note_on_c, 8, 62, 0
8, 17640, Note_on_c, 8, 57, 0
8, 17640, Note_on_c, 8, 57, 100
8, 17640, Note_on_c, 8, 62, 100
8, 17760, Note_on_c, 8, 62, 0
8, 17760, Note_on_c, 8, 57, 0
8, 17760, Note_on_c, 8, 55, 100
8, 17760, Note_on_c, 8, 62, 100
8, 17880, Note_on_c, 8, 62, 0
8, 17880, Note_on_c, 8, 55, 0
8, 17880, Note_on_c, 8, 55, 100
8, 17880, Note_on_c, 8, 62, 100
8, 18000, Note_on_c, 8, 62, 0
8, 18000, Note_on_c, 8, 55, 0
8, 18000, Note_on_c, 8, 59, 100
8, 18000, Note_on_c, 8, 64, 100
8, 18120, Note_on_c, 8, 64, 0
8, 18120, Note_on_c, 8, 59, 0
8, 18120, Note_on_c, 8, 59, 100
8, 18120, Note_on_c, 8, 64, 100
8, 18240, Note_on_c, 8, 64, 0
8, 18240, Note_on_c, 8, 59, 0
8, 18240, Note_on_c, 8, 60, 100
8, 18360, Note_on_c, 8, 60, 0
8, 18360, Note_on_c, 8, 60, 100
8, 18480, Note_on_c, 8, 60, 0
8, 18480, Note_on_c, 8, 60, 100
8, 18600, Note_on_c, 8, 60, 0
8, 18600, Note_on_c, 8, 60, 100
8, 18720, Note_on_c, 8, 60, 0
8, 18720, Note_on_c, 8, 59, 100
8, 18840, Note_on_c, 8, 59, 0
8, 18840, Note_on_c, 8, 59, 100
8, 18960, Note_on_c, 8, 59, 0
8, 18960, Note_on_c, 8, 59, 100
8, 19080, Note_on_c, 8, 59, 0
8, 19080, Note_on_c, 8, 59, 100
8, 19200, Note_on_c, 8, 59, 0
8, 19200, End_track
9, 0, Start_track
9, 0, MIDI_port, 0
9, 0, Title_t, "Viole"
9, 0, Program_c, 10, 50
9, 0, Control_c, 10, 7, 100
9, 0, Control_c, 10, 10, 64
9, 0, Control_c, 10, 91, 120
9, 0, Control_c, 10, 93, 50
9, 9600, Note_on_c, 10, 55, 100
9, 9600, Note_on_c, 10, 62, 100
9, 9720, Note_on_c, 10, 62, 0
9, 9720, Note_on_c, 10, 55, 0
9, 9720, Note_on_c, 10, 55, 100
9, 9720, Note_on_c, 10, 62, 100
9, 9840, Note_on_c, 10, 62, 0
9, 9840, Note_on_c, 10, 55, 0
9, 9840, Note_on_c, 10, 50, 100
9, 9840, Note_on_c, 10, 62, 100
9, 9960, Note_on_c, 10, 62, 0
9, 9960, Note_on_c, 10, 50, 0
9, 9960, Note_on_c, 10, 50, 100
9, 9960, Note_on_c, 10, 62, 100
9, 10080, Note_on_c, 10, 62, 0
9, 10080, Note_on_c, 10, 50, 0
9, 10080, Note_on_c, 10, 55, 100
9, 10080, Note_on_c, 10, 59, 100
9, 10200, Note_on_c, 10, 59, 0
9, 10200, Note_on_c, 10, 55, 0
9, 10200, Note_on_c, 10, 55, 100
9, 10200, Note_on_c, 10, 59, 100
9, 10320, Note_on_c, 10, 59, 0
9, 10320, Note_on_c, 10, 55, 0
9, 10320, Note_on_c, 10, 55, 100
9, 10320, Note_on_c, 10, 59, 100
9, 10440, Note_on_c, 10, 59, 0
9, 10440, Note_on_c, 10, 55, 0
9, 10440, Note_on_c, 10, 55, 100
9, 10560, Note_on_c, 10, 55, 0
9, 10560, Note_on_c, 10, 60, 100
9, 10680, Note_on_c, 10, 60, 0
9, 10680, Note_on_c, 10, 60, 100
9, 10800, Note_on_c, 10, 60, 0
9, 10800, Note_on_c, 10, 59, 100
9, 10920, Note_on_c, 10, 59, 0
9, 10920, Note_on_c, 10, 59, 100
9, 11040, Note_on_c, 10, 59, 0
9, 11040, Note_on_c, 10, 55, 100
9, 11040, Note_on_c, 10, 57, 100
9, 11160, Note_on_c, 10, 57, 0
9, 11160, Note_on_c, 10, 55, 0
9, 11160, Note_on_c, 10, 55, 100
9, 11160, Note_on_c, 10, 57, 100
9, 11280, Note_on_c, 10, 57, 0
9, 11280, Note_on_c, 10, 55, 0
9, 11280, Note_on_c, 10, 54, 100
9, 11280, Note_on_c, 10, 57, 100
9, 11400, Note_on_c, 10, 57, 0
9, 11400, Note_on_c, 10, 54, 0
9, 11400, Note_on_c, 10, 54, 100
9, 11400, Note_on_c, 10, 57, 100
9, 11520, Note_on_c, 10, 57, 0
9, 11520, Note_on_c, 10, 54, 0
9, 11520, Note_on_c, 10, 62, 100
9, 11520, Note_on_c, 10, 55, 100
9, 11640, Note_on_c, 10, 55, 0
9, 11640, Note_on_c, 10, 62, 0
9, 11640, Note_on_c, 10, 55, 100
9, 11640, Note_on_c, 10, 62, 100
9, 11760, Note_on_c, 10, 62, 0
9, 11760, Note_on_c, 10, 55, 0
9, 11760, Note_on_c, 10, 52, 100
9, 11760, Note_on_c, 10, 61, 100
9, 11880, Note_on_c, 10, 61, 0
9, 11880, Note_on_c, 10, 52, 0
9, 11880, Note_on_c, 10, 61, 100
9, 11880, Note_on_c, 10, 52, 100
9, 12000, Note_on_c, 10, 52, 0
9, 12000, Note_on_c, 10, 61, 0
9, 12000, Note_on_c, 10, 62, 100
9, 12000, Note_on_c, 10, 50, 100
9, 12120, Note_on_c, 10, 50, 0
9, 12120, Note_on_c, 10, 62, 0
9, 12120, Note_on_c, 10, 50, 100
9, 12120, Note_on_c, 10, 62, 100
9, 12240, Note_on_c, 10, 62, 0
9, 12240, Note_on_c, 10, 50, 0
9, 12240, Note_on_c, 10, 54, 100
9, 12360, Note_on_c, 10, 54, 0
9, 12360, Note_on_c, 10, 54, 100
9, 12480, Note_on_c, 10, 54, 0
9, 12480, Note_on_c, 10, 55, 100
9, 12600, Note_on_c, 10, 55, 0
9, 12600, Note_on_c, 10, 55, 100
9, 12720, Note_on_c, 10, 55, 0
9, 12720, Note_on_c, 10, 57, 100
9, 12720, Note_on_c, 10, 55, 100
9, 12840, Note_on_c, 10, 55, 0
9, 12840, Note_on_c, 10, 57, 0
9, 12840, Note_on_c, 10, 57, 100
9, 12840, Note_on_c, 10, 55, 100
9, 12960, Note_on_c, 10, 55, 0
9, 12960, Note_on_c, 10, 57, 0
9, 12960, Note_on_c, 10, 57, 100
9, 12960, Note_on_c, 10, 54, 100
9, 13080, Note_on_c, 10, 54, 0
9, 13080, Note_on_c, 10, 57, 0
9, 13080, Note_on_c, 10, 57, 100
9, 13080, Note_on_c, 10, 54, 100
9, 13200, Note_on_c, 10, 54, 0
9, 13200, Note_on_c, 10, 57, 0
9, 13200, Note_on_c, 10, 54, 100
9, 13320, Note_on_c, 10, 54, 0
9, 13320, Note_on_c, 10, 54, 100
9, 13440, Note_on_c, 10, 54, 0
9, 13440, Note_on_c, 10, 59, 100
9, 13440, Note_on_c, 10, 50, 100
9, 13560, Note_on_c, 10, 50, 0
9, 13560, Note_on_c, 10, 59, 0
9, 13560, Note_on_c, 10, 50, 100
9, 13560, Note_on_c, 10, 59, 100
9, 13680, Note_on_c, 10, 59, 0
9, 13680, Note_on_c, 10, 50, 0
9, 13680, Note_on_c, 10, 50, 100
9, 13680, Note_on_c, 10, 60, 100
9, 13800, Note_on_c, 10, 60, 0
9, 13800, Note_on_c, 10, 50, 0
9, 13800, Note_on_c, 10, 50, 100
9, 13800, Note_on_c, 10, 60, 100
9, 13920, Note_on_c, 10, 60, 0
9, 13920, Note_on_c, 10, 50, 0
9, 13920, Note_on_c, 10, 59, 100
9, 13920, Note_on_c, 10, 64, 100
9, 14040, Note_on_c, 10, 64, 0
9, 14040, Note_on_c, 10, 59, 0
9, 14040, Note_on_c, 10, 59, 100
9, 14040, Note_on_c, 10, 64, 100
9, 14160, Note_on_c, 10, 64, 0
9, 14160, Note_on_c, 10, 59, 0
9, 14160, Note_on_c, 10, 59, 100
9, 14160, Note_on_c, 10, 62, 100
9, 14280, Note_on_c, 10, 62, 0
9, 14280, Note_on_c, 10, 59, 0
9, 14280, Note_on_c, 10, 59, 100
9, 14280, Note_on_c, 10, 62, 100
9, 14400, Note_on_c, 10, 62, 0
9, 14400, Note_on_c, 10, 59, 0
9, 14400, Note_on_c, 10, 60, 100
9, 14520, Note_on_c, 10, 60, 0
9, 14520, Note_on_c, 10, 60, 100
9, 14640, Note_on_c, 10, 60, 0
9, 14640, Note_on_c, 10, 59, 100
9, 14760, Note_on_c, 10, 59, 0
9, 14760, Note_on_c, 10, 55, 100
9, 14880, Note_on_c, 10, 55, 0
9, 14880, Note_on_c, 10, 55, 100
9, 15000, Note_on_c, 10, 55, 0
9, 15000, Note_on_c, 10, 55, 100
9, 15120, Note_on_c, 10, 55, 0
9, 15120, Note_on_c, 10, 54, 100
9, 15240, Note_on_c, 10, 54, 0
9, 15240, Note_on_c, 10, 54, 100
9, 15360, Note_on_c, 10, 54, 0
9, 15360, Note_on_c, 10, 59, 100
9, 15480, Note_on_c, 10, 59, 0
9, 15480, Note_on_c, 10, 59, 100
9, 15600, Note_on_c, 10, 59, 0
9, 15600, Note_on_c, 10, 52, 100
9, 15600, Note_on_c, 10, 57, 100
9, 15720, Note_on_c, 10, 57, 0
9, 15720, Note_on_c, 10, 52, 0
9, 15720, Note_on_c, 10, 52, 100
9, 15720, Note_on_c, 10, 57, 100
9, 15840, Note_on_c, 10, 57, 0
9, 15840, Note_on_c, 10, 52, 0
9, 15840, Note_on_c, 10, 50, 100
9, 15840, Note_on_c, 10, 57, 100
9, 15960, Note_on_c, 10, 57, 0
9, 15960, Note_on_c, 10, 50, 0
9, 15960, Note_on_c, 10, 50, 100
9, 15960, Note_on_c, 10, 57, 100
9, 16080, Note_on_c, 10, 57, 0
9, 16080, Note_on_c, 10, 50, 0
9, 16080, Note_on_c, 10, 50, 100
9, 16080, Note_on_c, 10, 57, 100
9, 16200, Note_on_c, 10, 57, 0
9, 16200, Note_on_c, 10, 50, 0
9, 16200, Note_on_c, 10, 50, 100
9, 16200, Note_on_c, 10, 57, 100
9, 16320, Note_on_c, 10, 57, 0
9, 16320, Note_on_c, 10, 50, 0
9, 16320, Note_on_c, 10, 60, 100
9, 16440, Note_on_c, 10, 60, 0
9, 16440, Note_on_c, 10, 60, 100
9, 16560, Note_on_c, 10, 60, 0
9, 16560, Note_on_c, 10, 62, 100
9, 16680, Note_on_c, 10, 62, 0
9, 16680, Note_on_c, 10, 60, 100
9, 16680, Note_on_c, 10, 62, 100
9, 16800, Note_on_c, 10, 62, 0
9, 16800, Note_on_c, 10, 60, 0
9, 16800, Note_on_c, 10, 59, 100
9, 16800, Note_on_c, 10, 62, 100
9, 16920, Note_on_c, 10, 62, 0
9, 16920, Note_on_c, 10, 59, 0
9, 16920, Note_on_c, 10, 59, 100
9, 16920, Note_on_c, 10, 62, 100
9, 17040, Note_on_c, 10, 62, 0
9, 17040, Note_on_c, 10, 59, 0
9, 17040, Note_on_c, 10, 59, 100
9, 17040, Note_on_c, 10, 62, 100
9, 17160, Note_on_c, 10, 62, 0
9, 17160, Note_on_c, 10, 59, 0
9, 17160, Note_on_c, 10, 59, 100
9, 17160, Note_on_c, 10, 62, 100
9, 17280, Note_on_c, 10, 62, 0
9, 17280, Note_on_c, 10, 59, 0
9, 17280, Note_on_c, 10, 48, 100
9, 17280, Note_on_c, 10, 60, 100
9, 17400, Note_on_c, 10, 60, 0
9, 17400, Note_on_c, 10, 48, 0
9, 17400, Note_on_c, 10, 48, 100
9, 17400, Note_on_c, 10, 60, 100
9, 17520, Note_on_c, 10, 60, 0
9, 17520, Note_on_c, 10, 48, 0
9, 17520, Note_on_c, 10, 54, 100
9, 17640, Note_on_c, 10, 54, 0
9, 17640, Note_on_c, 10, 54, 100
9, 17760, Note_on_c, 10, 54, 0
9, 17760, Note_on_c, 10, 50, 100
9, 17760, Note_on_c, 10, 55, 100
9, 17880, Note_on_c, 10, 55, 0
9, 17880, Note_on_c, 10, 50, 0
9, 17880, Note_on_c, 10, 50, 100
9, 17880, Note_on_c, 10, 55, 100
9, 18000, Note_on_c, 10, 55, 0
9, 18000, Note_on_c, 10, 50, 0
9, 18000, Note_on_c, 10, 55, 100
9, 18120, Note_on_c, 10, 55, 0
9, 18120, Note_on_c, 10, 55, 100
9, 18240, Note_on_c, 10, 55, 0
9, 18240, Note_on_c, 10, 52, 100
9, 18240, Note_on_c, 10, 55, 100
9, 18360, Note_on_c, 10, 55, 0
9, 18360, Note_on_c, 10, 52, 0
9, 18360, Note_on_c, 10, 52, 100
9, 18360, Note_on_c, 10, 55, 100
9, 18480, Note_on_c, 10, 55, 0
9, 18480, Note_on_c, 10, 52, 0
9, 18480, Note_on_c, 10, 54, 100
9, 18600, Note_on_c, 10, 54, 0
9, 18600, Note_on_c, 10, 54, 100
9, 18720, Note_on_c, 10, 54, 0
9, 18720, Note_on_c, 10, 55, 100
9, 18840, Note_on_c, 10, 55, 0
9, 18840, Note_on_c, 10, 55, 100
9, 18960, Note_on_c, 10, 55, 0
9, 18960, Note_on_c, 10, 55, 100
9, 19080, Note_on_c, 10, 55, 0
9, 19080, Note_on_c, 10, 55, 100
9, 19200, Note_on_c, 10, 55, 0
9, 19200, End_track
10, 0, Start_track
10, 0, MIDI_port, 0
10, 0, Title_t, "Violoncelli"
10, 0, Program_c, 11, 50
10, 0, Control_c, 11, 7, 100
10, 0, Control_c, 11, 10, 64
10, 0, Control_c, 11, 91, 120
10, 0, Control_c, 11, 93, 40
10, 9600, Note_on_c, 11, 43, 100
10, 9720, Note_on_c, 11, 43, 0
10, 9720, Note_on_c, 11, 43, 100
10, 9840, Note_on_c, 11, 43, 0
10, 9840, Note_on_c, 11, 45, 100
10, 9960, Note_on_c, 11, 45, 0
10, 9960, Note_on_c, 11, 45, 100
10, 10080, Note_on_c, 11, 45, 0
10, 10080, Note_on_c, 11, 47, 100
10, 10200, Note_on_c, 11, 47, 0
10, 10200, Note_on_c, 11, 47, 100
10, 10320, Note_on_c, 11, 47, 0
10, 10320, Note_on_c, 11, 47, 100
10, 10440, Note_on_c, 11, 47, 0
10, 10440, Note_on_c, 11, 47, 100
10, 10560, Note_on_c, 11, 47, 0
10, 10560, Note_on_c, 11, 48, 100
10, 10680, Note_on_c, 11, 48, 0
10, 10680, Note_on_c, 11, 48, 100
10, 10800, Note_on_c, 11, 48, 0
10, 10800, Note_on_c, 11, 50, 100
10, 10920, Note_on_c, 11, 50, 0
10, 10920, Note_on_c, 11, 50, 100
10, 11040, Note_on_c, 11, 50, 0
10, 11040, Note_on_c, 11, 52, 100
10, 11160, Note_on_c, 11, 52, 0
10, 11160, Note_on_c, 11, 52, 100
10, 11280, Note_on_c, 11, 52, 0
10, 11280, Note_on_c, 11, 50, 100
10, 11400, Note_on_c, 11, 50, 0
10, 11400, Note_on_c, 11, 50, 100
10, 11520, Note_on_c, 11, 50, 0
10, 11520, Note_on_c, 11, 43, 100
10, 11640, Note_on_c, 11, 43, 0
10, 11640, Note_on_c, 11, 43, 100
10, 11760, Note_on_c, 11, 43, 0
10, 11760, Note_on_c, 11, 43, 100
10, 11880, Note_on_c, 11, 43, 0
10, 11880, Note_on_c, 11, 43, 100
10, 12000, Note_on_c, 11, 43, 0
10, 12000, Note_on_c, 11, 42, 100
10, 12120, Note_on_c, 11, 42, 0
10, 12120, Note_on_c, 11, 42, 100
10, 12240, Note_on_c, 11, 42, 0
10, 12240, Note_on_c, 11, 47, 100
10, 12360, Note_on_c, 11, 47, 0
10, 12360, Note_on_c, 11, 47, 100
10, 12480, Note_on_c, 11, 47, 0
10, 12480, Note_on_c, 11, 40, 100
10, 12600, Note_on_c, 11, 40, 0
10, 12600, Note_on_c, 11, 40, 100
10, 12720, Note_on_c, 11, 40, 0
10, 12720, Note_on_c, 11, 45, 100
10, 12840, Note_on_c, 11, 45, 0
10, 12840, Note_on_c, 11, 45, 100
10, 12960, Note_on_c, 11, 45, 0
10, 12960, Note_on_c, 11, 50, 100
10, 13080, Note_on_c, 11, 50, 0
10, 13080, Note_on_c, 11, 50, 100
10, 13200, Note_on_c, 11, 50, 0
10, 13200, Note_on_c, 11, 50, 100
10, 13320, Note_on_c, 11, 50, 0
10, 13320, Note_on_c, 11, 50, 100
10, 13440, Note_on_c, 11, 50, 0
10, 13440, Note_on_c, 11, 43, 100
10, 13560, Note_on_c, 11, 43, 0
10, 13560, Note_on_c, 11, 43, 100
10, 13680, Note_on_c, 11, 43, 0
10, 13680, Note_on_c, 11, 45, 100
10, 13800, Note_on_c, 11, 45, 0
10, 13800, Note_on_c, 11, 45, 100
10, 13920, Note_on_c, 11, 45, 0
10, 13920, Note_on_c, 11, 47, 100
10, 14040, Note_on_c, 11, 47, 0
10, 14040, Note_on_c, 11, 47, 100
10, 14160, Note_on_c, 11, 47, 0
10, 14160, Note_on_c, 11, 47, 100
10, 14280, Note_on_c, 11, 47, 0
10, 14280, Note_on_c, 11, 47, 100
10, 14400, Note_on_c, 11, 47, 0
10, 14400, Note_on_c, 11, 52, 100
10, 14520, Note_on_c, 11, 52, 0
10, 14520, Note_on_c, 11, 52, 100
10, 14640, Note_on_c, 11, 52, 0
10, 14640, Note_on_c, 11, 50, 100
10, 14760, Note_on_c, 11, 50, 0
10, 14760, Note_on_c, 11, 50, 100
10, 14880, Note_on_c, 11, 50, 0
10, 14880, Note_on_c, 11, 49, 100
10, 15000, Note_on_c, 11, 49, 0
10, 15000, Note_on_c, 11, 49, 100
10, 15120, Note_on_c, 11, 49, 0
10, 15120, Note_on_c, 11, 50, 100
10, 15240, Note_on_c, 11, 50, 0
10, 15240, Note_on_c, 11, 50, 100
10, 15360, Note_on_c, 11, 50, 0
10, 15360, Note_on_c, 11, 43, 100
10, 15480, Note_on_c, 11, 43, 0
10, 15480, Note_on_c, 11, 43, 100
10, 15600, Note_on_c, 11, 43, 0
10, 15600, Note_on_c, 11, 43, 100
10, 15720, Note_on_c, 11, 43, 0
10, 15720, Note_on_c, 11, 43, 100
10, 15840, Note_on_c, 11, 43, 0
10, 15840, Note_on_c, 11, 42, 100
10, 15960, Note_on_c, 11, 42, 0
10, 15960, Note_on_c, 11, 42, 100
10, 16080, Note_on_c, 11, 42, 0
10, 16080, Note_on_c, 11, 42, 100
10, 16200, Note_on_c, 11, 42, 0
10, 16200, Note_on_c, 11, 42, 100
10, 16320, Note_on_c, 11, 42, 0
10, 16320, Note_on_c, 11, 52, 100
10, 16440, Note_on_c, 11, 52, 0
10, 16440, Note_on_c, 11, 52, 100
10, 16560, Note_on_c, 11, 52, 0
10, 16560, Note_on_c, 11, 50, 100
10, 16680, Note_on_c, 11, 50, 0
10, 16680, Note_on_c, 11, 50, 100
10, 16800, Note_on_c, 11, 50, 0
10, 16800, Note_on_c, 11, 55, 100
10, 16920, Note_on_c, 11, 55, 0
10, 16920, Note_on_c, 11, 55, 100
10, 17040, Note_on_c, 11, 55, 0
10, 17040, Note_on_c, 11, 43, 100
10, 17160, Note_on_c, 11, 43, 0
10, 17160, Note_on_c, 11, 43, 100
10, 17280, Note_on_c, 11, 43, 0
10, 17280, Note_on_c, 11, 48, 100
10, 17400, Note_on_c, 11, 48, 0
10, 17400, Note_on_c, 11, 48, 100
10, 17520, Note_on_c, 11, 48, 0
10, 17520, Note_on_c, 11, 48, 100
10, 17640, Note_on_c, 11, 48, 0
10, 17640, Note_on_c, 11, 48, 100
10, 17760, Note_on_c, 11, 48, 0
10, 17760, Note_on_c, 11, 47, 100
10, 17880, Note_on_c, 11, 47, 0
10, 17880, Note_on_c, 11, 47, 100
10, 18000, Note_on_c, 11, 47, 0
10, 18000, Note_on_c, 11, 40, 100
10, 18120, Note_on_c, 11, 40, 0
10, 18120, Note_on_c, 11, 40, 100
10, 18240, Note_on_c, 11, 40, 0
10, 18240, Note_on_c, 11, 45, 100
10, 18360, Note_on_c, 11, 45, 0
10, 18360, Note_on_c, 11, 45, 100
10, 18480, Note_on_c, 11, 45, 0
10, 18480, Note_on_c, 11, 50, 100
10, 18600, Note_on_c, 11, 50, 0
10, 18600, Note_on_c, 11, 50, 100
10, 18720, Note_on_c, 11, 50, 0
10, 18720, Note_on_c, 11, 43, 100
10, 18840, Note_on_c, 11, 43, 0
10, 18840, Note_on_c, 11, 43, 100
10, 18960, Note_on_c, 11, 43, 0
10, 18960, Note_on_c, 11, 43, 100
10, 19080, Note_on_c, 11, 43, 0
10, 19080, Note_on_c, 11, 43, 100
10, 19200, Note_on_c, 11, 43, 0
10, 19200, End_track
0, 0, End_of_file
